<?xml version="1.0" encoding="UTF-8"?>
<svg id="Capa_1" data-name="Capa 1" xmlns="http://www.w3.org/2000/svg" viewBox="0 0 433.8 64.08">
  <defs>
    <style>
      .cls-1 {
        fill: #fff;
      }

      .cls-2 {
        fill: #ffd523;
      }
    </style>
  </defs>
  <path class="cls-1" d="M9.19,38.04h9.37v25.51h-3.42l-.81-2.07c-1.86,1.74-3.63,2.61-5.32,2.61h-.54c-1.02,0-2.04-.18-3.06-.54-1.02-.36-1.94-.9-2.75-1.62-.81-.72-1.46-1.65-1.94-2.79-.48-1.14-.72-2.52-.72-4.15V9.1c0-1.62,.24-3,.72-4.15,.48-1.14,1.13-2.07,1.94-2.79,.81-.72,1.73-1.26,2.75-1.62,1.02-.36,2.04-.54,3.06-.54h1.62c1.02,0,2.04,.18,3.06,.54,1.02,.36,1.94,.9,2.75,1.62s1.46,1.65,1.94,2.79c.48,1.14,.72,2.52,.72,4.15V25.96h-7.03V10.09c0-1.56-.18-2.64-.54-3.25-.36-.6-.87-.9-1.53-.9h-.36c-.66,0-1.17,.32-1.53,.95-.36,.63-.54,1.73-.54,3.29V53.9c0,1.56,.18,2.66,.54,3.29,.36,.63,.87,.95,1.53,.95h.36c.66,0,1.17-.32,1.53-.95s.54-1.73,.54-3.29v-9.92h-2.34v-5.95Z"/>
  <path class="cls-1" d="M39.93,25.96c0,1.92-.3,3.35-.89,4.28-.59,.93-1.33,1.55-2.23,1.85,.89,.24,1.63,.83,2.23,1.76,.59,.93,.89,2.36,.89,4.28v14.15c0,2.04,.05,3.76,.14,5.14,.09,1.38,.19,2.51,.32,3.38,.12,.87,.24,1.52,.36,1.94,.12,.42,.21,.69,.27,.81h-7.04c-.42-.72-.7-1.97-.85-3.74-.15-1.77-.22-4.28-.22-7.53v-13.52c0-2.71-.6-4.06-1.8-4.06h-2.7v28.84h-7.03V.54h10.14c2.33,0,4.32,.78,5.96,2.34,1.64,1.56,2.47,3.79,2.47,6.67V25.96Zm-8.83,3.51c1.2,0,1.8-1.32,1.8-3.97V10.64c0-2.76-.69-4.15-2.07-4.15h-2.43V29.47h2.7Z"/>
  <path class="cls-1" d="M54.53,46.87h-4.96l-1.35,16.67h-6.04L47.77,.54h9.01l5.95,63h-6.76l-1.44-16.67Zm-4.51-5.23h4.06l-1.89-21.63h-.27l-1.89,21.63Z"/>
  <path class="cls-1" d="M72.74,64.08c-1.02,0-2.04-.18-3.06-.54-1.02-.36-1.94-.9-2.75-1.62-.81-.72-1.46-1.65-1.94-2.79-.48-1.14-.72-2.52-.72-4.15V9.1c0-1.62,.24-3,.72-4.15,.48-1.14,1.13-2.07,1.94-2.79s1.73-1.26,2.75-1.62c1.02-.36,2.04-.54,3.06-.54h1.62c1.02,0,2.04,.18,3.06,.54,1.02,.36,1.94,.9,2.75,1.62,.81,.72,1.46,1.65,1.94,2.79,.48,1.14,.72,2.52,.72,4.15V25.96h-7.03V10.09c0-1.56-.18-2.64-.54-3.25-.36-.6-.87-.9-1.53-.9h-.36c-.66,0-1.17,.32-1.53,.95-.36,.63-.54,1.73-.54,3.29V53.9c0,1.56,.18,2.66,.54,3.29s.87,.95,1.53,.95h.36c.66,0,1.17-.32,1.53-.95,.36-.63,.54-1.73,.54-3.29v-15.86h7.03v16.94c0,1.62-.24,3.01-.72,4.15-.48,1.14-1.13,2.07-1.94,2.79-.81,.72-1.73,1.26-2.75,1.62-1.02,.36-2.04,.54-3.06,.54h-1.62Z"/>
  <path class="cls-1" d="M92.66,.54V63.54h-7.03V.54h7.03Z"/>
  <path class="cls-1" d="M106.72,46.87h-4.96l-1.35,16.67h-6.04L99.96,.54h9.01l5.95,63h-6.76l-1.44-16.67Zm-4.51-5.23h4.06l-1.89-21.63h-.27l-1.89,21.63Z"/>
  <path class="cls-1" d="M127.99,25.87V10.09c0-1.56-.18-2.64-.54-3.25-.36-.6-.87-.9-1.53-.9h-.36c-.66,0-1.17,.32-1.53,.95-.36,.63-.54,1.73-.54,3.29v7.57c0,2.94,.6,5.47,1.8,7.57,1.2,2.1,2.52,4.13,3.97,6.08,1.44,1.95,2.76,4,3.97,6.13,1.2,2.13,1.8,4.7,1.8,7.71v9.73c0,1.62-.24,3.01-.72,4.15-.48,1.14-1.11,2.07-1.89,2.79-.78,.72-1.68,1.26-2.7,1.62-1.02,.36-2.07,.54-3.16,.54h-1.35c-1.08,0-2.13-.17-3.15-.5-1.02-.33-1.95-.87-2.79-1.62-.84-.75-1.52-1.7-2.03-2.84-.51-1.14-.77-2.52-.77-4.15v-16.85h6.4v15.77c0,1.56,.24,2.66,.72,3.29,.48,.63,1.05,.95,1.71,.95h.36c.66,0,1.22-.32,1.67-.95,.45-.63,.68-1.73,.68-3.29v-7.57c0-2.94-.6-5.47-1.8-7.57-1.2-2.1-2.52-4.13-3.97-6.08-1.44-1.95-2.76-4-3.97-6.13-1.2-2.13-1.8-4.7-1.8-7.71V9.1c0-1.62,.25-3,.77-4.15,.51-1.14,1.17-2.07,1.98-2.79,.81-.72,1.73-1.26,2.75-1.62,1.02-.36,2.04-.54,3.06-.54h.9c1.08,0,2.12,.18,3.11,.54,.99,.36,1.89,.9,2.7,1.62,.81,.72,1.46,1.65,1.94,2.79,.48,1.14,.72,2.52,.72,4.15V25.87h-6.4Z"/>
  <path class="cls-1" d="M157.73,.54c2.34,0,4.34,.78,5.99,2.34,1.65,1.56,2.48,3.79,2.48,6.67V30.1c0,2.76-.78,4.73-2.34,5.9-1.56,1.17-3.51,1.76-5.86,1.76h-3.42v25.78h-7.03V.54h10.18Zm1.35,10.1c0-2.76-.69-4.15-2.07-4.15h-2.43V31.91h2.7c1.2,0,1.8-1.32,1.8-3.97V10.64Z"/>
  <path class="cls-1" d="M177.29,64.08c-1.02,0-2.04-.18-3.06-.54-1.02-.36-1.94-.9-2.75-1.62-.81-.72-1.46-1.65-1.94-2.79-.48-1.14-.72-2.52-.72-4.15V9.1c0-1.62,.24-3,.72-4.15,.48-1.14,1.13-2.07,1.94-2.79s1.73-1.26,2.75-1.62c1.02-.36,2.04-.54,3.06-.54h1.62c1.02,0,2.04,.18,3.06,.54,1.02,.36,1.94,.9,2.75,1.62,.81,.72,1.46,1.65,1.94,2.79,.48,1.14,.72,2.52,.72,4.15V54.98c0,1.62-.24,3.01-.72,4.15-.48,1.14-1.13,2.07-1.94,2.79-.81,.72-1.73,1.26-2.75,1.62-1.02,.36-2.04,.54-3.06,.54h-1.62Zm.63-58.13c-1.38,0-2.07,1.41-2.07,4.24V53.9c0,1.56,.18,2.66,.54,3.29s.87,.95,1.53,.95h.36c.66,0,1.17-.32,1.53-.95,.36-.63,.54-1.73,.54-3.29V10.18c0-2.82-.69-4.24-2.07-4.24h-.36Z"/>
  <path class="cls-1" d="M208.74,25.96c0,1.92-.3,3.35-.89,4.28-.59,.93-1.33,1.55-2.23,1.85,.89,.24,1.63,.83,2.23,1.76,.59,.93,.89,2.36,.89,4.28v14.15c0,2.04,.05,3.76,.14,5.14,.09,1.38,.19,2.51,.32,3.38,.12,.87,.24,1.52,.36,1.94,.12,.42,.21,.69,.27,.81h-7.04c-.42-.72-.7-1.97-.85-3.74-.15-1.77-.22-4.28-.22-7.53v-13.52c0-2.71-.6-4.06-1.8-4.06h-2.7v28.84h-7.03V.54h10.14c2.33,0,4.32,.78,5.96,2.34,1.64,1.56,2.47,3.79,2.47,6.67V25.96Zm-8.83,3.51c1.2,0,1.8-1.32,1.8-3.97V10.64c0-2.76-.69-4.15-2.07-4.15h-2.43V29.47h2.7Z"/>
  <path class="cls-2" d="M240.47,25.96c0,1.92-.3,3.35-.89,4.28-.59,.93-1.33,1.55-2.23,1.85,.89,.24,1.63,.83,2.23,1.76,.59,.93,.89,2.36,.89,4.28v14.15c0,2.04,.05,3.76,.14,5.14,.09,1.38,.19,2.51,.32,3.38,.12,.87,.24,1.52,.36,1.94,.12,.42,.21,.69,.27,.81h-7.04c-.42-.72-.7-1.97-.85-3.74-.15-1.77-.22-4.28-.22-7.53v-13.52c0-2.71-.6-4.06-1.8-4.06h-2.7v28.84h-7.03V.54h10.14c2.33,0,4.32,.78,5.96,2.34,1.64,1.56,2.47,3.79,2.47,6.67V25.96Zm-8.83,3.51c1.2,0,1.8-1.32,1.8-3.97V10.64c0-2.76-.69-4.15-2.07-4.15h-2.43V29.47h2.7Z"/>
  <path class="cls-2" d="M250.92,6.49V29.38h6.13v5.32h-6.13v22.89h8.38v5.95h-15.41V.54h14.87V6.49h-7.84Z"/>
  <path class="cls-2" d="M270.57,38.04h9.37v25.51h-3.42l-.81-2.07c-1.86,1.74-3.64,2.61-5.32,2.61h-.54c-1.02,0-2.04-.18-3.06-.54-1.02-.36-1.94-.9-2.75-1.62-.81-.72-1.46-1.65-1.94-2.79-.48-1.14-.72-2.52-.72-4.15V9.1c0-1.62,.24-3,.72-4.15,.48-1.14,1.13-2.07,1.94-2.79s1.73-1.26,2.75-1.62c1.02-.36,2.04-.54,3.06-.54h1.62c1.02,0,2.04,.18,3.06,.54,1.02,.36,1.94,.9,2.75,1.62,.81,.72,1.46,1.65,1.94,2.79,.48,1.14,.72,2.52,.72,4.15V25.96h-7.03V10.09c0-1.56-.18-2.64-.54-3.25-.36-.6-.87-.9-1.53-.9h-.36c-.66,0-1.17,.32-1.53,.95-.36,.63-.54,1.73-.54,3.29V53.9c0,1.56,.18,2.66,.54,3.29s.87,.95,1.53,.95h.36c.66,0,1.17-.32,1.53-.95,.36-.63,.54-1.73,.54-3.29v-9.92h-2.34v-5.95Z"/>
  <path class="cls-2" d="M289.77,.54V63.54h-7.03V.54h7.03Z"/>
  <path class="cls-2" d="M304.1,25.87V10.09c0-1.56-.18-2.64-.54-3.25-.36-.6-.87-.9-1.53-.9h-.36c-.66,0-1.17,.32-1.53,.95-.36,.63-.54,1.73-.54,3.29v7.57c0,2.94,.6,5.47,1.8,7.57,1.2,2.1,2.52,4.13,3.97,6.08,1.44,1.95,2.76,4,3.97,6.13,1.2,2.13,1.8,4.7,1.8,7.71v9.73c0,1.62-.24,3.01-.72,4.15-.48,1.14-1.11,2.07-1.89,2.79-.78,.72-1.68,1.26-2.7,1.62-1.02,.36-2.07,.54-3.16,.54h-1.35c-1.08,0-2.13-.17-3.15-.5-1.02-.33-1.95-.87-2.79-1.62-.84-.75-1.52-1.7-2.03-2.84-.51-1.14-.77-2.52-.77-4.15v-16.85h6.4v15.77c0,1.56,.24,2.66,.72,3.29,.48,.63,1.05,.95,1.71,.95h.36c.66,0,1.22-.32,1.67-.95,.45-.63,.68-1.73,.68-3.29v-7.57c0-2.94-.6-5.47-1.8-7.57-1.2-2.1-2.52-4.13-3.97-6.08-1.44-1.95-2.76-4-3.97-6.13-1.2-2.13-1.8-4.7-1.8-7.71V9.1c0-1.62,.25-3,.77-4.15,.51-1.14,1.17-2.07,1.98-2.79,.81-.72,1.73-1.26,2.75-1.62,1.02-.36,2.04-.54,3.06-.54h.9c1.08,0,2.12,.18,3.11,.54,.99,.36,1.89,.9,2.7,1.62,.81,.72,1.46,1.65,1.94,2.79,.48,1.14,.72,2.52,.72,4.15V25.87h-6.4Z"/>
  <path class="cls-2" d="M331.95,6.49h-6.04V63.54h-7.03V6.49h-6.13V.54h19.2V6.49Z"/>
  <path class="cls-2" d="M352.23,25.96c0,1.92-.3,3.35-.89,4.28-.59,.93-1.33,1.55-2.23,1.85,.89,.24,1.63,.83,2.23,1.76,.59,.93,.89,2.36,.89,4.28v14.15c0,2.04,.05,3.76,.14,5.14,.09,1.38,.19,2.51,.32,3.38,.12,.87,.24,1.52,.36,1.94,.12,.42,.21,.69,.27,.81h-7.04c-.42-.72-.7-1.97-.85-3.74-.15-1.77-.22-4.28-.22-7.53v-13.52c0-2.71-.6-4.06-1.8-4.06h-2.7v28.84h-7.03V.54h10.14c2.33,0,4.32,.78,5.96,2.34,1.64,1.56,2.47,3.79,2.47,6.67V25.96Zm-8.83,3.51c1.2,0,1.8-1.32,1.8-3.97V10.64c0-2.76-.69-4.15-2.07-4.15h-2.43V29.47h2.7Z"/>
  <path class="cls-2" d="M366.83,46.87h-4.96l-1.35,16.67h-6.04L360.07,.54h9.01l5.95,63h-6.76l-1.44-16.67Zm-4.51-5.23h4.06l-1.89-21.63h-.27l-1.89,21.63Z"/>
  <path class="cls-2" d="M395.22,25.96c0,1.92-.3,3.35-.89,4.28-.59,.93-1.33,1.55-2.23,1.85,.89,.24,1.63,.83,2.23,1.76,.59,.93,.89,2.36,.89,4.28v14.15c0,2.04,.05,3.76,.14,5.14,.09,1.38,.19,2.51,.32,3.38,.12,.87,.24,1.52,.36,1.94,.12,.42,.21,.69,.27,.81h-7.04c-.42-.72-.7-1.97-.85-3.74-.15-1.77-.22-4.28-.22-7.53v-13.52c0-2.71-.6-4.06-1.8-4.06h-2.7v28.84h-7.03V.54h10.14c2.33,0,4.32,.78,5.96,2.34,1.64,1.56,2.47,3.79,2.47,6.67V25.96Zm-8.83,3.51c1.2,0,1.8-1.32,1.8-3.97V10.64c0-2.76-.69-4.15-2.07-4.15h-2.43V29.47h2.7Z"/>
  <path class="cls-2" d="M416.68,6.49h-6.04V63.54h-7.03V6.49h-6.13V.54h19.2V6.49Z"/>
  <path class="cls-2" d="M425.42,6.49V29.38h6.13v5.32h-6.13v22.89h8.38v5.95h-15.41V.54h14.87V6.49h-7.84Z"/>
</svg>