<?xml version="1.0" encoding="UTF-8"?>
<svg id="Capa_1" data-name="Capa 1" xmlns="http://www.w3.org/2000/svg" viewBox="0 0 176 114">
  <defs>
    <style>
      .cls-1 {
        fill: #fff;
      }

      .cls-2 {
        fill: #ffd523;
      }
    </style>
  </defs>
  <path class="cls-1" d="M7,32H15v21h-2.62l-.68-1.49c-1.55,1.45-3.03,2.17-4.42,1.49h-.45c-.85,.68-1.7,.53-2.55,.23-.85-.3-1.61-.75-2.29-1.35-.68-.6-1.21-1.38-1.61-2.33C-.03,48.61,0,46.11,0,46.11V7.72C0,6.34,.19,5.17,.58,4.2c.39-.97,.91-1.76,1.57-2.37,.65-.61,1.39-1.07,2.22-1.37,.82-.31,1.65-.46,2.47-.46h1.31c.82,0,1.65,.15,2.47,.46s1.57,.76,2.22,1.37c.66,.61,1.18,1.4,1.57,2.37,.39,.97,.58,2.14,.58,3.51v14.28h-6V8.52c0-1.33-.16-2.25-.48-2.76-.32-.51-.77-.77-1.36-.77h-.32c-.59,0-1.04,.27-1.36,.8-.32,.54-.48,1.47-.48,2.8V45.41c0,1.33,.16,2.25,.48,2.79,.32,.53,.77,.8,1.36,.8h.32c.59,0,1.04-.27,1.36-.8,.32-.54,.48-1.46,.48-2.79v-8.41h-2v-5Z"/>
  <path class="cls-1" d="M33,21.98c0,1.59-.24,2.76-.72,3.53-.48,.77-1.08,1.28-1.8,1.52,.72,.2,1.32,.68,1.8,1.45,.48,.77,.72,1.95,.72,3.53v11.68c0,1.69,.04,3.1,.11,4.24,.07,1.14,.16,2.07,.26,2.79,.1,.72,.19,1.25,.29,1.6,.1,.35,.17,.57,.22,.67h-5.93c-.37-.6-.62-1.64-.75-3.11-.13-1.47-.2-3.56-.2-6.26v-11.25c0-2.25-.53-3.38-1.6-3.38h-2.4v24h-5V1h8.19c1.88,0,3.49,.65,4.82,1.93,1.33,1.29,1.99,3.12,1.99,5.5v13.54Zm-7.6,3.02c1.07,0,1.6-1.09,1.6-3.28V9.43c0-2.28-.61-3.43-1.84-3.43h-2.16V25h2.4Z"/>
  <path class="cls-1" d="M45.17,39h-4.16l-1.14,14h-4.93L39.56,1h7.44l4.91,52h-5.53l-1.21-14Zm-3.77-4h3.38l-1.58-18h-.22l-1.58,18Z"/>
  <path class="cls-1" d="M59.84,54c-.83,0-1.65-.15-2.48-.46-.83-.3-1.57-.76-2.22-1.37-.66-.61-1.18-1.4-1.57-2.36-.39-.96-.58-2.13-.58-3.5V7.72c0-1.37,.19-2.55,.58-3.51,.39-.97,.91-1.76,1.57-2.37,.66-.61,1.39-1.07,2.22-1.37,.82-.31,1.65-.46,2.48-.46h1.31c.82,0,1.65,.15,2.48,.46,.82,.31,1.57,.76,2.22,1.37,.66,.61,1.18,1.4,1.57,2.37,.39,.97,.58,2.14,.58,3.51v14.28h-5V8.52c0-1.33-.16-2.25-.48-2.76-.32-.51-.77-.77-1.36-.77h-.32c-.59,0-1.04,.27-1.36,.8-.32,.54-.48,1.47-.48,2.8V45.42c0,1.32,.16,2.25,.48,2.78,.32,.53,.77,.8,1.36,.8h.32c.59,0,1.04-.27,1.36-.8,.32-.53,.48-1.46,.48-2.78v-13.42h5v14.31c0,1.37-.19,2.54-.58,3.5-.39,.96-.91,1.75-1.57,2.36-.66,.61-1.4,1.07-2.22,1.37-.83,.3-1.65,.46-2.48,.46h-1.31Z"/>
  <path class="cls-1" d="M77,1V53h-6V1h6Z"/>
  <path class="cls-1" d="M88.59,39h-4.16l-1.14,14h-4.93L82.98,1h7.44l4.91,52h-5.53l-1.21-14Zm-3.77-4h3.38l-1.58-18h-.22l-1.58,18Z"/>
  <path class="cls-1" d="M106,22V8.45c0-1.3-.15-2.2-.45-2.7-.3-.5-.73-.75-1.28-.75h-.48c-.57,0-1.02,.26-1.33,.79-.31,.53-.47,1.44-.47,2.74v6.3c0,2.45,.52,4.55,1.56,6.3,1.04,1.75,2.19,3.44,3.44,5.06,1.25,1.62,2.39,3.33,3.44,5.1,1.04,1.78,1.56,3.91,1.56,6.41v8.72c0,1.35-.19,2.5-.58,3.45-.39,.95-.9,1.72-1.53,2.33-.63,.6-1.36,1.05-2.18,1.35-.83,.3-1.68,.45-2.55,.45h-1.09c-.87,0-1.72-.14-2.55-.41-.83-.27-1.58-.72-2.26-1.35-.68-.62-1.23-1.41-1.64-2.36-.41-.95-.62-2.1-.62-3.45v-14.42h5v13.4c0,1.33,.19,2.26,.56,2.79,.38,.54,.82,.8,1.34,.8h.07c.57,0,1.05-.26,1.44-.78,.39-.52,.59-1.43,.59-2.72v-6.25c0-2.43-.52-4.51-1.56-6.25-1.04-1.74-2.19-3.41-3.44-5.02-1.25-1.61-2.4-3.3-3.44-5.06-1.04-1.76-1.56-3.88-1.56-6.36V8.52c0-1.34,.22-2.48,.66-3.42,.44-.94,1.02-1.71,1.72-2.31,.7-.59,1.5-1.04,2.38-1.34,.89-.3,1.77-.45,2.66-.45h.96c.85,0,1.66,.15,2.43,.44,.77,.29,1.48,.73,2.11,1.32,.63,.59,1.14,1.34,1.51,2.27,.38,.93,.56,2.05,.56,3.37v13.61h-5Z"/>
  <path class="cls-1" d="M130.73,1c2.01,0,3.72,.65,5.14,1.93,1.42,1.29,2.13,3.12,2.13,5.5V25.76c0,2.25-.67,3.85-2.01,4.81-1.34,.95-3.02,1.43-5.04,1.43h-2.95v21h-6V1h8.73Zm1.27,8.43c0-2.28-.61-3.43-1.84-3.43h-2.16V27h2.4c1.07,0,1.6-1.09,1.6-3.28V9.43Z"/>
  <path class="cls-1" d="M146.84,54c-.83,0-1.65-.15-2.48-.45-.83-.3-1.57-.75-2.22-1.34-.66-.6-1.18-1.37-1.57-2.31-.39-.94-.58-2.09-.58-3.43V8.53c0-1.34,.19-2.48,.58-3.43,.39-.94,.91-1.71,1.57-2.31,.66-.6,1.39-1.04,2.22-1.34,.82-.3,1.65-.45,2.48-.45h1.31c.82,0,1.65,.15,2.48,.45,.82,.3,1.57,.75,2.22,1.34,.66,.6,1.18,1.37,1.57,2.31,.39,.94,.58,2.09,.58,3.43V46.47c0,1.34-.19,2.49-.58,3.43-.39,.94-.91,1.71-1.57,2.31-.66,.6-1.4,1.04-2.22,1.34-.83,.3-1.65,.45-2.48,.45h-1.31Zm1-48c-1.23,0-1.84,1.16-1.84,3.49V45.51c0,1.29,.16,2.19,.48,2.71,.32,.52,.77,.78,1.36,.78h.32c.59,0,1.04-.26,1.36-.78,.32-.52,.48-1.42,.48-2.71V9.49c0-2.33-.61-3.49-1.84-3.49h-.32Z"/>
  <path class="cls-1" d="M173,21.98c0,1.59-.24,2.76-.72,3.53-.48,.77-1.08,1.28-1.8,1.52,.72,.2,1.32,.68,1.8,1.45,.48,.77,.72,1.95,.72,3.53v11.68c0,1.69,.04,3.1,.11,4.24,.07,1.14,.16,2.07,.26,2.79,.1,.72,.19,1.25,.29,1.6,.1,.35,.17,.57,.22,.67h-4.93c-.37-.6-.62-1.64-.75-3.11-.13-1.47-.2-3.56-.2-6.26v-11.25c0-2.25-.53-3.38-1.6-3.38h-2.4v24h-6V1h8.19c1.88,0,3.49,.65,4.82,1.93,1.33,1.29,1.99,3.12,1.99,5.5v13.54Zm-6.6,3.02c1.07,0,1.6-1.09,1.6-3.28V9.43c0-2.28-.61-3.43-1.84-3.43h-2.16V25h2.4Z"/>
  <path class="cls-2" d="M15,81.98c0,1.59-.24,2.77-.72,3.53-.48,.77-1.08,1.28-1.8,1.53,.72,.2,1.32,.68,1.8,1.45,.48,.77,.72,1.95,.72,3.53v11.68c0,1.69,.04,3.1,.11,4.24,.07,1.14,.16,2.07,.26,2.79,.1,.72,.19,1.25,.29,1.6,.1,.35,.17,.57,.22,.67h-4.92c-.37-.6-.62-1.64-.75-3.11-.13-1.47-.2-3.56-.2-6.26v-11.25c0-2.25-.53-3.38-1.6-3.38h-2.4v24H0V61H8.19c1.88,0,3.49,.65,4.82,1.93,1.33,1.29,1.99,3.12,1.99,5.5v13.54Zm-6.6,3.02c1.07,0,1.6-1.09,1.6-3.28v-12.29c0-2.28-.61-3.43-1.84-3.43h-2.16v19h2.4Z"/>
  <path class="cls-2" d="M24,66v19h5v4h-5v19h7v5h-13V61h13v5h-7Z"/>
  <path class="cls-2" d="M40,92h8v21h-2.7l-.67-1.49c-1.55,1.45-3.03,2.17-4.42,1.49h-.45c-.85,.68-1.7,.53-2.55,.23-.85-.3-1.61-.75-2.29-1.35-.68-.6-1.21-1.38-1.61-2.33-.4-.95-.3-3.45-.3-3.45v-38.39c0-1.38,.19-2.55,.58-3.51,.39-.97,.91-1.76,1.57-2.37,.66-.61,1.39-1.07,2.22-1.37,.82-.31,1.65-.46,2.48-.46h1.31c.82,0,1.65,.15,2.48,.46,.82,.31,1.57,.76,2.22,1.37,.66,.61,1.18,1.4,1.57,2.37,.39,.97,.58,2.14,.58,3.51v14.28h-6v-13.48c0-1.33-.16-2.25-.48-2.76-.32-.51-.77-.77-1.36-.77h-.32c-.59,0-1.04,.27-1.36,.8-.32,.54-.48,1.47-.48,2.79v36.81c0,1.33,.16,2.26,.48,2.79,.32,.53,.77,.8,1.36,.8h.32c.59,0,1.04-.27,1.36-.8,.32-.54,.48-1.46,.48-2.79v-8.41h-2v-5Z"/>
  <path class="cls-2" d="M56,61v52h-6V61h6Z"/>
  <path class="cls-2" d="M68,82v-13.55c0-1.3-.15-2.2-.45-2.7-.3-.5-.73-.75-1.28-.75h-.48c-.57,0-1.02,.26-1.33,.79-.31,.53-.47,1.44-.47,2.74v6.3c0,2.45,.52,4.55,1.56,6.3,1.04,1.75,2.19,3.44,3.44,5.06,1.25,1.62,2.39,3.33,3.44,5.1,1.04,1.78,1.56,3.91,1.56,6.41v8.72c0,1.35-.19,2.5-.58,3.45-.39,.95-.9,1.72-1.53,2.33-.63,.6-1.36,1.05-2.18,1.35-.83,.3-1.68,.45-2.55,.45h-1.09c-.87,0-1.72-.14-2.55-.41-.83-.27-1.58-.72-2.26-1.35-.68-.62-1.23-1.41-1.64-2.36-.41-.95-.62-2.1-.62-3.45v-14.42h5v13.4c0,1.33,.19,2.26,.56,2.8,.38,.54,.82,.8,1.34,.8h.07c.57,0,1.05-.26,1.44-.78,.39-.52,.59-1.43,.59-2.72v-6.25c0-2.43-.52-4.51-1.56-6.25-1.04-1.74-2.19-3.41-3.44-5.02-1.25-1.61-2.4-3.3-3.44-5.06-1.04-1.76-1.56-3.88-1.56-6.36v-8.04c0-1.34,.22-2.48,.66-3.42,.44-.94,1.02-1.71,1.72-2.31,.7-.59,1.5-1.04,2.38-1.34,.89-.3,1.77-.45,2.66-.45h.96c.85,0,1.66,.15,2.43,.44,.77,.29,1.48,.73,2.11,1.32,.63,.59,1.14,1.34,1.51,2.27,.38,.93,.56,2.05,.56,3.37v13.61h-5Z"/>
  <path class="cls-2" d="M91,66h-5v47h-6v-47h-5v-5h16v5Z"/>
  <path class="cls-2" d="M108,81.98c0,1.59-.24,2.77-.72,3.53-.48,.77-1.08,1.28-1.8,1.53,.72,.2,1.32,.68,1.8,1.45,.48,.77,.72,1.95,.72,3.53v11.68c0,1.69,.04,3.1,.11,4.24s.16,2.07,.26,2.79c.1,.72,.19,1.25,.29,1.6,.1,.35,.17,.57,.22,.67h-4.93c-.37-.6-.62-1.64-.75-3.11-.13-1.47-.2-3.56-.2-6.26v-11.25c0-2.25-.53-3.38-1.6-3.38h-2.4v24h-6V61h8.19c1.88,0,3.49,.65,4.82,1.93,1.33,1.29,1.99,3.12,1.99,5.5v13.54Zm-6.6,3.02c1.07,0,1.6-1.09,1.6-3.28v-12.29c0-2.28-.61-3.43-1.84-3.43h-2.16v19h2.4Z"/>
  <path class="cls-2" d="M120.47,99h-4.16l-1.14,14h-4.93l4.61-52h7.44l4.91,52h-5.53l-1.21-14Zm-3.77-4h3.38l-1.58-18h-.22l-1.58,18Z"/>
  <path class="cls-2" d="M144,81.98c0,1.59-.24,2.77-.72,3.53-.48,.77-1.08,1.28-1.8,1.53,.72,.2,1.32,.68,1.8,1.45,.48,.77,.72,1.95,.72,3.53v11.68c0,1.69,.04,3.1,.11,4.24s.16,2.07,.26,2.79c.1,.72,.19,1.25,.29,1.6,.1,.35,.17,.57,.22,.67h-5.93c-.37-.6-.62-1.64-.75-3.11-.13-1.47-.2-3.56-.2-6.26v-11.25c0-2.25-.53-3.38-1.6-3.38h-2.4v24h-5V61h8.19c1.88,0,3.49,.65,4.82,1.93,1.33,1.29,1.99,3.12,1.99,5.5v13.54Zm-7.6,3.02c1.07,0,1.6-1.09,1.6-3.28v-12.29c0-2.28-.61-3.43-1.84-3.43h-2.16v19h2.4Z"/>
  <path class="cls-2" d="M162,66h-5v47h-6v-47h-5v-5h16v5Z"/>
  <path class="cls-2" d="M169,66v19h5v4h-5v19h7v5h-13V61h13v5h-7Z"/>
</svg>