<?xml version="1.0" encoding="utf-8"?>
<!-- Generator: Adobe Illustrator 27.0.1, SVG Export Plug-In . SVG Version: 6.00 Build 0)  -->
<svg version="1.1" id="Capa_1" xmlns="http://www.w3.org/2000/svg" xmlns:xlink="http://www.w3.org/1999/xlink" x="0px" y="0px"
	 viewBox="0 0 728 724" style="enable-background:new 0 0 728 724;" xml:space="preserve">
<style type="text/css">
	.st0{fill:#1D1D1B;}
</style>
<g id="WhatsApp_00000083089421637165088670000003894110573498161540_">
	<g>
		<path class="st0" d="M545.31,439.33c-2.19-3.65-8.01-5.85-16.75-10.2c-8.74-4.38-51.74-25.55-59.78-28.47
			c-8.01-2.89-13.83-4.38-19.67,4.38c-5.82,8.74-22.6,28.44-27.68,34.29c-5.12,5.85-10.2,6.58-18.94,2.19
			c-8.77-4.38-36.93-13.6-70.35-43.42c-26-23.19-43.54-51.83-48.65-60.57c-5.09-8.77-0.53-13.49,3.85-17.85
			c3.93-3.93,8.74-10.23,13.1-15.35c4.38-5.09,5.85-8.74,8.77-14.59c2.89-5.82,1.43-10.93-0.73-15.32
			c-2.19-4.36-19.67-47.42-26.98-64.93c-7.08-17.06-14.31-14.76-19.67-15.01c-5.09-0.28-10.93-0.34-16.75-0.34
			c-5.85,0-15.32,2.19-23.33,10.96c-8.01,8.77-30.61,29.91-30.61,72.96c0,43.03,31.34,84.63,35.7,90.47
			c4.38,5.82,61.69,94.18,149.41,132.07c20.88,8.99,37.16,14.39,49.86,18.41c20.97,6.66,40.02,5.73,55.09,3.46
			c16.81-2.5,51.74-21.14,59.05-41.57C547.5,460.49,547.5,442.98,545.31,439.33"/>
		<path class="st0" d="M368.96,647.01h-0.11c-52.19-0.03-103.4-14.05-148.09-40.56l-10.6-6.3l-110.12,28.87l29.37-107.34
			l-6.91-11.02c-29.12-46.32-44.49-99.86-44.46-154.84c0.06-160.4,130.58-290.9,291.04-290.9c77.71,0.03,150.76,30.33,205.68,85.33
			c54.95,54.98,85.16,128.08,85.16,205.82C659.84,516.51,529.34,647.01,368.96,647.01 M616.58,108.46
			C550.5,42.3,462.61,5.84,368.96,5.82c-192.92,0-349.95,157-350.04,350.01c-0.03,61.69,16.1,121.9,46.71,174.99L16.01,712.18
			l185.56-48.65c51.13,27.88,108.69,42.58,167.26,42.58h0.14c0.03,0,0,0,0,0c192.92,0,349.95-157.03,350.04-350.01
			C719.06,262.57,682.66,174.62,616.58,108.46"/>
	</g>
</g>
</svg>
